<?xml version="1.0" standalone="no"?>
<svg xmlns="http://www.w3.org/2000/svg" width="1024" height="1331" viewBox="0 0 1000 1300"><defs><clipPath id="clip-path-dot-color"><circle cx="164" cy="380" r="12" transform="rotate(0,164,380)"/><circle cx="164" cy="404" r="12" transform="rotate(0,164,404)"/><circle cx="164" cy="452" r="12" transform="rotate(0,164,452)"/><circle cx="164" cy="476" r="12" transform="rotate(0,164,476)"/><circle cx="164" cy="524" r="12" transform="rotate(0,164,524)"/><circle cx="164" cy="596" r="12" transform="rotate(0,164,596)"/><circle cx="164" cy="620" r="12" transform="rotate(0,164,620)"/><circle cx="188" cy="476" r="12" transform="rotate(0,188,476)"/><circle cx="188" cy="524" r="12" transform="rotate(0,188,524)"/><circle cx="188" cy="572" r="12" transform="rotate(0,188,572)"/><circle cx="188" cy="644" r="12" transform="rotate(0,188,644)"/><circle cx="212" cy="356" r="12" transform="rotate(0,212,356)"/><circle cx="212" cy="476" r="12" transform="rotate(0,212,476)"/><circle cx="212" cy="500" r="12" transform="rotate(0,212,500)"/><circle cx="212" cy="524" r="12" transform="rotate(0,212,524)"/><circle cx="212" cy="572" r="12" transform="rotate(0,212,572)"/><circle cx="212" cy="620" r="12" transform="rotate(0,212,620)"/><circle cx="212" cy="644" r="12" transform="rotate(0,212,644)"/><circle cx="236" cy="452" r="12" transform="rotate(0,236,452)"/><circle cx="236" cy="500" r="12" transform="rotate(0,236,500)"/><circle cx="236" cy="524" r="12" transform="rotate(0,236,524)"/><circle cx="236" cy="548" r="12" transform="rotate(0,236,548)"/><circle cx="236" cy="596" r="12" transform="rotate(0,236,596)"/><circle cx="236" cy="620" r="12" transform="rotate(0,236,620)"/><circle cx="260" cy="356" r="12" transform="rotate(0,260,356)"/><circle cx="260" cy="380" r="12" transform="rotate(0,260,380)"/><circle cx="260" cy="404" r="12" transform="rotate(0,260,404)"/><circle cx="260" cy="428" r="12" transform="rotate(0,260,428)"/><circle cx="260" cy="476" r="12" transform="rotate(0,260,476)"/><circle cx="260" cy="500" r="12" transform="rotate(0,260,500)"/><circle cx="284" cy="356" r="12" transform="rotate(0,284,356)"/><circle cx="284" cy="380" r="12" transform="rotate(0,284,380)"/><circle cx="284" cy="428" r="12" transform="rotate(0,284,428)"/><circle cx="284" cy="452" r="12" transform="rotate(0,284,452)"/><circle cx="284" cy="500" r="12" transform="rotate(0,284,500)"/><circle cx="284" cy="596" r="12" transform="rotate(0,284,596)"/><circle cx="284" cy="620" r="12" transform="rotate(0,284,620)"/><circle cx="284" cy="644" r="12" transform="rotate(0,284,644)"/><circle cx="308" cy="356" r="12" transform="rotate(0,308,356)"/><circle cx="308" cy="404" r="12" transform="rotate(0,308,404)"/><circle cx="308" cy="452" r="12" transform="rotate(0,308,452)"/><circle cx="308" cy="500" r="12" transform="rotate(0,308,500)"/><circle cx="308" cy="548" r="12" transform="rotate(0,308,548)"/><circle cx="308" cy="596" r="12" transform="rotate(0,308,596)"/><circle cx="308" cy="644" r="12" transform="rotate(0,308,644)"/><circle cx="332" cy="404" r="12" transform="rotate(0,332,404)"/><circle cx="332" cy="428" r="12" transform="rotate(0,332,428)"/><circle cx="332" cy="572" r="12" transform="rotate(0,332,572)"/><circle cx="332" cy="596" r="12" transform="rotate(0,332,596)"/><circle cx="332" cy="620" r="12" transform="rotate(0,332,620)"/><circle cx="356" cy="188" r="12" transform="rotate(0,356,188)"/><circle cx="356" cy="260" r="12" transform="rotate(0,356,260)"/><circle cx="356" cy="308" r="12" transform="rotate(0,356,308)"/><circle cx="356" cy="356" r="12" transform="rotate(0,356,356)"/><circle cx="356" cy="380" r="12" transform="rotate(0,356,380)"/><circle cx="356" cy="428" r="12" transform="rotate(0,356,428)"/><circle cx="356" cy="524" r="12" transform="rotate(0,356,524)"/><circle cx="356" cy="596" r="12" transform="rotate(0,356,596)"/><circle cx="356" cy="620" r="12" transform="rotate(0,356,620)"/><circle cx="356" cy="644" r="12" transform="rotate(0,356,644)"/><circle cx="356" cy="668" r="12" transform="rotate(0,356,668)"/><circle cx="356" cy="716" r="12" transform="rotate(0,356,716)"/><circle cx="356" cy="740" r="12" transform="rotate(0,356,740)"/><circle cx="356" cy="788" r="12" transform="rotate(0,356,788)"/><circle cx="380" cy="188" r="12" transform="rotate(0,380,188)"/><circle cx="380" cy="212" r="12" transform="rotate(0,380,212)"/><circle cx="380" cy="260" r="12" transform="rotate(0,380,260)"/><circle cx="380" cy="284" r="12" transform="rotate(0,380,284)"/><circle cx="380" cy="356" r="12" transform="rotate(0,380,356)"/><circle cx="380" cy="380" r="12" transform="rotate(0,380,380)"/><circle cx="380" cy="428" r="12" transform="rotate(0,380,428)"/><circle cx="380" cy="572" r="12" transform="rotate(0,380,572)"/><circle cx="380" cy="620" r="12" transform="rotate(0,380,620)"/><circle cx="380" cy="644" r="12" transform="rotate(0,380,644)"/><circle cx="380" cy="692" r="12" transform="rotate(0,380,692)"/><circle cx="380" cy="716" r="12" transform="rotate(0,380,716)"/><circle cx="380" cy="740" r="12" transform="rotate(0,380,740)"/><circle cx="380" cy="764" r="12" transform="rotate(0,380,764)"/><circle cx="380" cy="788" r="12" transform="rotate(0,380,788)"/><circle cx="380" cy="812" r="12" transform="rotate(0,380,812)"/><circle cx="380" cy="836" r="12" transform="rotate(0,380,836)"/><circle cx="404" cy="164" r="12" transform="rotate(0,404,164)"/><circle cx="404" cy="308" r="12" transform="rotate(0,404,308)"/><circle cx="404" cy="332" r="12" transform="rotate(0,404,332)"/><circle cx="404" cy="356" r="12" transform="rotate(0,404,356)"/><circle cx="404" cy="644" r="12" transform="rotate(0,404,644)"/><circle cx="404" cy="668" r="12" transform="rotate(0,404,668)"/><circle cx="404" cy="716" r="12" transform="rotate(0,404,716)"/><circle cx="404" cy="764" r="12" transform="rotate(0,404,764)"/><circle cx="404" cy="836" r="12" transform="rotate(0,404,836)"/><circle cx="428" cy="164" r="12" transform="rotate(0,428,164)"/><circle cx="428" cy="188" r="12" transform="rotate(0,428,188)"/><circle cx="428" cy="332" r="12" transform="rotate(0,428,332)"/><circle cx="428" cy="380" r="12" transform="rotate(0,428,380)"/><circle cx="428" cy="668" r="12" transform="rotate(0,428,668)"/><circle cx="428" cy="716" r="12" transform="rotate(0,428,716)"/><circle cx="428" cy="740" r="12" transform="rotate(0,428,740)"/><circle cx="428" cy="764" r="12" transform="rotate(0,428,764)"/><circle cx="428" cy="812" r="12" transform="rotate(0,428,812)"/><circle cx="428" cy="836" r="12" transform="rotate(0,428,836)"/><circle cx="452" cy="188" r="12" transform="rotate(0,452,188)"/><circle cx="452" cy="212" r="12" transform="rotate(0,452,212)"/><circle cx="452" cy="260" r="12" transform="rotate(0,452,260)"/><circle cx="452" cy="308" r="12" transform="rotate(0,452,308)"/><circle cx="452" cy="332" r="12" transform="rotate(0,452,332)"/><circle cx="452" cy="356" r="12" transform="rotate(0,452,356)"/><circle cx="452" cy="620" r="12" transform="rotate(0,452,620)"/><circle cx="452" cy="716" r="12" transform="rotate(0,452,716)"/><circle cx="452" cy="764" r="12" transform="rotate(0,452,764)"/><circle cx="452" cy="788" r="12" transform="rotate(0,452,788)"/><circle cx="452" cy="836" r="12" transform="rotate(0,452,836)"/><circle cx="476" cy="164" r="12" transform="rotate(0,476,164)"/><circle cx="476" cy="212" r="12" transform="rotate(0,476,212)"/><circle cx="476" cy="284" r="12" transform="rotate(0,476,284)"/><circle cx="476" cy="332" r="12" transform="rotate(0,476,332)"/><circle cx="476" cy="356" r="12" transform="rotate(0,476,356)"/><circle cx="476" cy="692" r="12" transform="rotate(0,476,692)"/><circle cx="476" cy="740" r="12" transform="rotate(0,476,740)"/><circle cx="476" cy="788" r="12" transform="rotate(0,476,788)"/><circle cx="500" cy="164" r="12" transform="rotate(0,500,164)"/><circle cx="500" cy="188" r="12" transform="rotate(0,500,188)"/><circle cx="500" cy="236" r="12" transform="rotate(0,500,236)"/><circle cx="500" cy="308" r="12" transform="rotate(0,500,308)"/><circle cx="500" cy="332" r="12" transform="rotate(0,500,332)"/><circle cx="500" cy="644" r="12" transform="rotate(0,500,644)"/><circle cx="500" cy="668" r="12" transform="rotate(0,500,668)"/><circle cx="500" cy="692" r="12" transform="rotate(0,500,692)"/><circle cx="500" cy="740" r="12" transform="rotate(0,500,740)"/><circle cx="500" cy="836" r="12" transform="rotate(0,500,836)"/><circle cx="524" cy="188" r="12" transform="rotate(0,524,188)"/><circle cx="524" cy="260" r="12" transform="rotate(0,524,260)"/><circle cx="524" cy="332" r="12" transform="rotate(0,524,332)"/><circle cx="524" cy="692" r="12" transform="rotate(0,524,692)"/><circle cx="524" cy="716" r="12" transform="rotate(0,524,716)"/><circle cx="524" cy="764" r="12" transform="rotate(0,524,764)"/><circle cx="548" cy="164" r="12" transform="rotate(0,548,164)"/><circle cx="548" cy="188" r="12" transform="rotate(0,548,188)"/><circle cx="548" cy="212" r="12" transform="rotate(0,548,212)"/><circle cx="548" cy="260" r="12" transform="rotate(0,548,260)"/><circle cx="548" cy="284" r="12" transform="rotate(0,548,284)"/><circle cx="548" cy="308" r="12" transform="rotate(0,548,308)"/><circle cx="548" cy="332" r="12" transform="rotate(0,548,332)"/><circle cx="548" cy="620" r="12" transform="rotate(0,548,620)"/><circle cx="548" cy="644" r="12" transform="rotate(0,548,644)"/><circle cx="548" cy="668" r="12" transform="rotate(0,548,668)"/><circle cx="548" cy="716" r="12" transform="rotate(0,548,716)"/><circle cx="572" cy="164" r="12" transform="rotate(0,572,164)"/><circle cx="572" cy="188" r="12" transform="rotate(0,572,188)"/><circle cx="572" cy="236" r="12" transform="rotate(0,572,236)"/><circle cx="572" cy="284" r="12" transform="rotate(0,572,284)"/><circle cx="572" cy="332" r="12" transform="rotate(0,572,332)"/><circle cx="572" cy="356" r="12" transform="rotate(0,572,356)"/><circle cx="572" cy="620" r="12" transform="rotate(0,572,620)"/><circle cx="572" cy="716" r="12" transform="rotate(0,572,716)"/><circle cx="572" cy="740" r="12" transform="rotate(0,572,740)"/><circle cx="572" cy="788" r="12" transform="rotate(0,572,788)"/><circle cx="572" cy="836" r="12" transform="rotate(0,572,836)"/><circle cx="596" cy="212" r="12" transform="rotate(0,596,212)"/><circle cx="596" cy="260" r="12" transform="rotate(0,596,260)"/><circle cx="596" cy="284" r="12" transform="rotate(0,596,284)"/><circle cx="596" cy="308" r="12" transform="rotate(0,596,308)"/><circle cx="596" cy="356" r="12" transform="rotate(0,596,356)"/><circle cx="596" cy="380" r="12" transform="rotate(0,596,380)"/><circle cx="596" cy="644" r="12" transform="rotate(0,596,644)"/><circle cx="596" cy="764" r="12" transform="rotate(0,596,764)"/><circle cx="596" cy="836" r="12" transform="rotate(0,596,836)"/><circle cx="620" cy="212" r="12" transform="rotate(0,620,212)"/><circle cx="620" cy="236" r="12" transform="rotate(0,620,236)"/><circle cx="620" cy="260" r="12" transform="rotate(0,620,260)"/><circle cx="620" cy="404" r="12" transform="rotate(0,620,404)"/><circle cx="620" cy="428" r="12" transform="rotate(0,620,428)"/><circle cx="620" cy="452" r="12" transform="rotate(0,620,452)"/><circle cx="620" cy="476" r="12" transform="rotate(0,620,476)"/><circle cx="620" cy="500" r="12" transform="rotate(0,620,500)"/><circle cx="620" cy="524" r="12" transform="rotate(0,620,524)"/><circle cx="620" cy="548" r="12" transform="rotate(0,620,548)"/><circle cx="620" cy="572" r="12" transform="rotate(0,620,572)"/><circle cx="620" cy="620" r="12" transform="rotate(0,620,620)"/><circle cx="620" cy="764" r="12" transform="rotate(0,620,764)"/><circle cx="620" cy="812" r="12" transform="rotate(0,620,812)"/><circle cx="644" cy="164" r="12" transform="rotate(0,644,164)"/><circle cx="644" cy="188" r="12" transform="rotate(0,644,188)"/><circle cx="644" cy="260" r="12" transform="rotate(0,644,260)"/><circle cx="644" cy="308" r="12" transform="rotate(0,644,308)"/><circle cx="644" cy="356" r="12" transform="rotate(0,644,356)"/><circle cx="644" cy="452" r="12" transform="rotate(0,644,452)"/><circle cx="644" cy="476" r="12" transform="rotate(0,644,476)"/><circle cx="644" cy="572" r="12" transform="rotate(0,644,572)"/><circle cx="644" cy="644" r="12" transform="rotate(0,644,644)"/><circle cx="644" cy="668" r="12" transform="rotate(0,644,668)"/><circle cx="644" cy="692" r="12" transform="rotate(0,644,692)"/><circle cx="644" cy="716" r="12" transform="rotate(0,644,716)"/><circle cx="644" cy="740" r="12" transform="rotate(0,644,740)"/><circle cx="644" cy="764" r="12" transform="rotate(0,644,764)"/><circle cx="644" cy="836" r="12" transform="rotate(0,644,836)"/><circle cx="668" cy="356" r="12" transform="rotate(0,668,356)"/><circle cx="668" cy="428" r="12" transform="rotate(0,668,428)"/><circle cx="668" cy="476" r="12" transform="rotate(0,668,476)"/><circle cx="668" cy="524" r="12" transform="rotate(0,668,524)"/><circle cx="668" cy="596" r="12" transform="rotate(0,668,596)"/><circle cx="668" cy="644" r="12" transform="rotate(0,668,644)"/><circle cx="668" cy="740" r="12" transform="rotate(0,668,740)"/><circle cx="668" cy="788" r="12" transform="rotate(0,668,788)"/><circle cx="668" cy="812" r="12" transform="rotate(0,668,812)"/><circle cx="692" cy="380" r="12" transform="rotate(0,692,380)"/><circle cx="692" cy="428" r="12" transform="rotate(0,692,428)"/><circle cx="692" cy="452" r="12" transform="rotate(0,692,452)"/><circle cx="692" cy="524" r="12" transform="rotate(0,692,524)"/><circle cx="692" cy="572" r="12" transform="rotate(0,692,572)"/><circle cx="692" cy="620" r="12" transform="rotate(0,692,620)"/><circle cx="692" cy="644" r="12" transform="rotate(0,692,644)"/><circle cx="692" cy="692" r="12" transform="rotate(0,692,692)"/><circle cx="692" cy="740" r="12" transform="rotate(0,692,740)"/><circle cx="692" cy="836" r="12" transform="rotate(0,692,836)"/><circle cx="716" cy="572" r="12" transform="rotate(0,716,572)"/><circle cx="716" cy="596" r="12" transform="rotate(0,716,596)"/><circle cx="716" cy="620" r="12" transform="rotate(0,716,620)"/><circle cx="716" cy="644" r="12" transform="rotate(0,716,644)"/><circle cx="716" cy="740" r="12" transform="rotate(0,716,740)"/><circle cx="716" cy="764" r="12" transform="rotate(0,716,764)"/><circle cx="740" cy="356" r="12" transform="rotate(0,740,356)"/><circle cx="740" cy="380" r="12" transform="rotate(0,740,380)"/><circle cx="740" cy="428" r="12" transform="rotate(0,740,428)"/><circle cx="740" cy="452" r="12" transform="rotate(0,740,452)"/><circle cx="740" cy="476" r="12" transform="rotate(0,740,476)"/><circle cx="740" cy="500" r="12" transform="rotate(0,740,500)"/><circle cx="740" cy="524" r="12" transform="rotate(0,740,524)"/><circle cx="740" cy="596" r="12" transform="rotate(0,740,596)"/><circle cx="740" cy="620" r="12" transform="rotate(0,740,620)"/><circle cx="740" cy="644" r="12" transform="rotate(0,740,644)"/><circle cx="740" cy="668" r="12" transform="rotate(0,740,668)"/><circle cx="740" cy="692" r="12" transform="rotate(0,740,692)"/><circle cx="740" cy="716" r="12" transform="rotate(0,740,716)"/><circle cx="740" cy="740" r="12" transform="rotate(0,740,740)"/><circle cx="740" cy="812" r="12" transform="rotate(0,740,812)"/><circle cx="740" cy="836" r="12" transform="rotate(0,740,836)"/><circle cx="764" cy="404" r="12" transform="rotate(0,764,404)"/><circle cx="764" cy="452" r="12" transform="rotate(0,764,452)"/><circle cx="764" cy="500" r="12" transform="rotate(0,764,500)"/><circle cx="764" cy="548" r="12" transform="rotate(0,764,548)"/><circle cx="764" cy="572" r="12" transform="rotate(0,764,572)"/><circle cx="764" cy="716" r="12" transform="rotate(0,764,716)"/><circle cx="764" cy="812" r="12" transform="rotate(0,764,812)"/><circle cx="788" cy="476" r="12" transform="rotate(0,788,476)"/><circle cx="788" cy="500" r="12" transform="rotate(0,788,500)"/><circle cx="788" cy="548" r="12" transform="rotate(0,788,548)"/><circle cx="788" cy="572" r="12" transform="rotate(0,788,572)"/><circle cx="788" cy="620" r="12" transform="rotate(0,788,620)"/><circle cx="788" cy="644" r="12" transform="rotate(0,788,644)"/><circle cx="788" cy="668" r="12" transform="rotate(0,788,668)"/><circle cx="788" cy="812" r="12" transform="rotate(0,788,812)"/><circle cx="788" cy="836" r="12" transform="rotate(0,788,836)"/><circle cx="812" cy="356" r="12" transform="rotate(0,812,356)"/><circle cx="812" cy="380" r="12" transform="rotate(0,812,380)"/><circle cx="812" cy="428" r="12" transform="rotate(0,812,428)"/><circle cx="812" cy="452" r="12" transform="rotate(0,812,452)"/><circle cx="812" cy="500" r="12" transform="rotate(0,812,500)"/><circle cx="812" cy="572" r="12" transform="rotate(0,812,572)"/><circle cx="812" cy="596" r="12" transform="rotate(0,812,596)"/><circle cx="812" cy="644" r="12" transform="rotate(0,812,644)"/><circle cx="812" cy="668" r="12" transform="rotate(0,812,668)"/><circle cx="812" cy="692" r="12" transform="rotate(0,812,692)"/><circle cx="812" cy="716" r="12" transform="rotate(0,812,716)"/><circle cx="812" cy="764" r="12" transform="rotate(0,812,764)"/><circle cx="812" cy="812" r="12" transform="rotate(0,812,812)"/><circle cx="812" cy="836" r="12" transform="rotate(0,812,836)"/><circle cx="836" cy="380" r="12" transform="rotate(0,836,380)"/><circle cx="836" cy="500" r="12" transform="rotate(0,836,500)"/><circle cx="836" cy="524" r="12" transform="rotate(0,836,524)"/><circle cx="836" cy="572" r="12" transform="rotate(0,836,572)"/><circle cx="836" cy="644" r="12" transform="rotate(0,836,644)"/><circle cx="836" cy="692" r="12" transform="rotate(0,836,692)"/><circle cx="836" cy="740" r="12" transform="rotate(0,836,740)"/><circle cx="836" cy="812" r="12" transform="rotate(0,836,812)"/></clipPath><clipPath id="clip-path-corners-square-color-0-0"><circle cx="164" cy="164" r="12" transform="rotate(0,164,164)"/><circle cx="164" cy="188" r="12" transform="rotate(0,164,188)"/><circle cx="164" cy="212" r="12" transform="rotate(0,164,212)"/><circle cx="164" cy="236" r="12" transform="rotate(0,164,236)"/><circle cx="164" cy="260" r="12" transform="rotate(0,164,260)"/><circle cx="164" cy="284" r="12" transform="rotate(0,164,284)"/><circle cx="164" cy="308" r="12" transform="rotate(0,164,308)"/><circle cx="188" cy="164" r="12" transform="rotate(0,188,164)"/><circle cx="188" cy="308" r="12" transform="rotate(0,188,308)"/><circle cx="212" cy="164" r="12" transform="rotate(0,212,164)"/><circle cx="212" cy="308" r="12" transform="rotate(0,212,308)"/><circle cx="236" cy="164" r="12" transform="rotate(0,236,164)"/><circle cx="236" cy="308" r="12" transform="rotate(0,236,308)"/><circle cx="260" cy="164" r="12" transform="rotate(0,260,164)"/><circle cx="260" cy="308" r="12" transform="rotate(0,260,308)"/><circle cx="284" cy="164" r="12" transform="rotate(0,284,164)"/><circle cx="284" cy="308" r="12" transform="rotate(0,284,308)"/><circle cx="308" cy="164" r="12" transform="rotate(0,308,164)"/><circle cx="308" cy="188" r="12" transform="rotate(0,308,188)"/><circle cx="308" cy="212" r="12" transform="rotate(0,308,212)"/><circle cx="308" cy="236" r="12" transform="rotate(0,308,236)"/><circle cx="308" cy="260" r="12" transform="rotate(0,308,260)"/><circle cx="308" cy="284" r="12" transform="rotate(0,308,284)"/><circle cx="308" cy="308" r="12" transform="rotate(0,308,308)"/></clipPath><clipPath id="clip-path-corners-dot-color-0-0"><circle cx="212" cy="212" r="12" transform="rotate(0,212,212)"/><circle cx="212" cy="236" r="12" transform="rotate(0,212,236)"/><circle cx="212" cy="260" r="12" transform="rotate(0,212,260)"/><circle cx="236" cy="212" r="12" transform="rotate(0,236,212)"/><circle cx="236" cy="236" r="12" transform="rotate(0,236,236)"/><circle cx="236" cy="260" r="12" transform="rotate(0,236,260)"/><circle cx="260" cy="212" r="12" transform="rotate(0,260,212)"/><circle cx="260" cy="236" r="12" transform="rotate(0,260,236)"/><circle cx="260" cy="260" r="12" transform="rotate(0,260,260)"/></clipPath><clipPath id="clip-path-corners-square-color-1-0"><circle cx="692" cy="164" r="12" transform="rotate(0,692,164)"/><circle cx="692" cy="188" r="12" transform="rotate(0,692,188)"/><circle cx="692" cy="212" r="12" transform="rotate(0,692,212)"/><circle cx="692" cy="236" r="12" transform="rotate(0,692,236)"/><circle cx="692" cy="260" r="12" transform="rotate(0,692,260)"/><circle cx="692" cy="284" r="12" transform="rotate(0,692,284)"/><circle cx="692" cy="308" r="12" transform="rotate(0,692,308)"/><circle cx="716" cy="164" r="12" transform="rotate(0,716,164)"/><circle cx="716" cy="308" r="12" transform="rotate(0,716,308)"/><circle cx="740" cy="164" r="12" transform="rotate(0,740,164)"/><circle cx="740" cy="308" r="12" transform="rotate(0,740,308)"/><circle cx="764" cy="164" r="12" transform="rotate(0,764,164)"/><circle cx="764" cy="308" r="12" transform="rotate(0,764,308)"/><circle cx="788" cy="164" r="12" transform="rotate(0,788,164)"/><circle cx="788" cy="308" r="12" transform="rotate(0,788,308)"/><circle cx="812" cy="164" r="12" transform="rotate(0,812,164)"/><circle cx="812" cy="308" r="12" transform="rotate(0,812,308)"/><circle cx="836" cy="164" r="12" transform="rotate(0,836,164)"/><circle cx="836" cy="188" r="12" transform="rotate(0,836,188)"/><circle cx="836" cy="212" r="12" transform="rotate(0,836,212)"/><circle cx="836" cy="236" r="12" transform="rotate(0,836,236)"/><circle cx="836" cy="260" r="12" transform="rotate(0,836,260)"/><circle cx="836" cy="284" r="12" transform="rotate(0,836,284)"/><circle cx="836" cy="308" r="12" transform="rotate(0,836,308)"/></clipPath><clipPath id="clip-path-corners-dot-color-1-0"><circle cx="740" cy="212" r="12" transform="rotate(0,740,212)"/><circle cx="740" cy="236" r="12" transform="rotate(0,740,236)"/><circle cx="740" cy="260" r="12" transform="rotate(0,740,260)"/><circle cx="764" cy="212" r="12" transform="rotate(0,764,212)"/><circle cx="764" cy="236" r="12" transform="rotate(0,764,236)"/><circle cx="764" cy="260" r="12" transform="rotate(0,764,260)"/><circle cx="788" cy="212" r="12" transform="rotate(0,788,212)"/><circle cx="788" cy="236" r="12" transform="rotate(0,788,236)"/><circle cx="788" cy="260" r="12" transform="rotate(0,788,260)"/></clipPath><clipPath id="clip-path-corners-square-color-0-1"><circle cx="164" cy="692" r="12" transform="rotate(0,164,692)"/><circle cx="164" cy="716" r="12" transform="rotate(0,164,716)"/><circle cx="164" cy="740" r="12" transform="rotate(0,164,740)"/><circle cx="164" cy="764" r="12" transform="rotate(0,164,764)"/><circle cx="164" cy="788" r="12" transform="rotate(0,164,788)"/><circle cx="164" cy="812" r="12" transform="rotate(0,164,812)"/><circle cx="164" cy="836" r="12" transform="rotate(0,164,836)"/><circle cx="188" cy="692" r="12" transform="rotate(0,188,692)"/><circle cx="188" cy="836" r="12" transform="rotate(0,188,836)"/><circle cx="212" cy="692" r="12" transform="rotate(0,212,692)"/><circle cx="212" cy="836" r="12" transform="rotate(0,212,836)"/><circle cx="236" cy="692" r="12" transform="rotate(0,236,692)"/><circle cx="236" cy="836" r="12" transform="rotate(0,236,836)"/><circle cx="260" cy="692" r="12" transform="rotate(0,260,692)"/><circle cx="260" cy="836" r="12" transform="rotate(0,260,836)"/><circle cx="284" cy="692" r="12" transform="rotate(0,284,692)"/><circle cx="284" cy="836" r="12" transform="rotate(0,284,836)"/><circle cx="308" cy="692" r="12" transform="rotate(0,308,692)"/><circle cx="308" cy="716" r="12" transform="rotate(0,308,716)"/><circle cx="308" cy="740" r="12" transform="rotate(0,308,740)"/><circle cx="308" cy="764" r="12" transform="rotate(0,308,764)"/><circle cx="308" cy="788" r="12" transform="rotate(0,308,788)"/><circle cx="308" cy="812" r="12" transform="rotate(0,308,812)"/><circle cx="308" cy="836" r="12" transform="rotate(0,308,836)"/></clipPath><clipPath id="clip-path-corners-dot-color-0-1"><circle cx="212" cy="740" r="12" transform="rotate(0,212,740)"/><circle cx="212" cy="764" r="12" transform="rotate(0,212,764)"/><circle cx="212" cy="788" r="12" transform="rotate(0,212,788)"/><circle cx="236" cy="740" r="12" transform="rotate(0,236,740)"/><circle cx="236" cy="764" r="12" transform="rotate(0,236,764)"/><circle cx="236" cy="788" r="12" transform="rotate(0,236,788)"/><circle cx="260" cy="740" r="12" transform="rotate(0,260,740)"/><circle cx="260" cy="764" r="12" transform="rotate(0,260,764)"/><circle cx="260" cy="788" r="12" transform="rotate(0,260,788)"/></clipPath></defs><defs/><text x="50%" y="1080" fill="#000000" dominant-baseline="middle" text-anchor="middle" font-family="sans-serif" font-size="90" font-weight="600">github link</text><rect x="112" y="112" height="776" width="776" clip-path="url('#clip-path-background-color')" fill="#ffffff"/><rect x="152" y="152" height="696" width="696" clip-path="url('#clip-path-dot-color')" fill="#000000"/><rect x="152" y="152" height="168" width="168" clip-path="url('#clip-path-corners-square-color-0-0')" fill="#000000"/><rect x="200" y="200" height="72" width="72" clip-path="url('#clip-path-corners-dot-color-0-0')" fill="#000000"/><rect x="680" y="152" height="168" width="168" clip-path="url('#clip-path-corners-square-color-1-0')" fill="#000000"/><rect x="728" y="200" height="72" width="72" clip-path="url('#clip-path-corners-dot-color-1-0')" fill="#000000"/><rect x="152" y="680" height="168" width="168" clip-path="url('#clip-path-corners-square-color-0-1')" fill="#000000"/><rect x="200" y="728" height="72" width="72" clip-path="url('#clip-path-corners-dot-color-0-1')" fill="#000000"/><image href="https://img.qrfy.com/img/large/033cc114-c5cc-48cd-a7bb-a537444e07a6.webp" x="392" y="392" width="216px" height="216px"/></svg>